<?xml version="1.0" standalone="no"?>
<!DOCTYPE svg PUBLIC "-//W3C//DTD SVG 20010904//EN"
 "http://www.w3.org/TR/2001/REC-SVG-20010904/DTD/svg10.dtd">
<svg version="1.0" xmlns="http://www.w3.org/2000/svg"
 width="400.000000pt" height="400.000000pt" viewBox="0 0 400.000000 400.000000"
 preserveAspectRatio="xMidYMid meet">

<g transform="translate(0.000000,400.000000) scale(0.100000,-0.100000)"
fill="#000000" stroke="none">
<path d="M836 3363 c-3 -3 -5 -36 -4 -72 l2 -66 6 70 c5 49 7 15 8 -118 1
-110 6 -186 11 -183 12 8 13 -226 2 -314 l-8 -65 -3 60 c-2 33 -9 -70 -15
-230 l-12 -290 -3 175 c-3 139 -5 95 -12 -215 -10 -442 -6 -556 22 -672 24
-102 77 -240 93 -246 15 -5 -2 -18 511 377 243 187 479 368 526 404 191 147
246 206 256 278 4 27 3 35 -4 25 -8 -11 -11 -10 -16 7 -28 87 -185 131 -546
152 -240 14 -342 42 -379 102 -14 23 -14 23 8 4 21 -19 21 -19 21 5 0 13 -7
33 -15 43 -8 11 -15 28 -15 39 0 39 68 144 148 228 128 135 417 364 445 353 7
-2 28 10 47 28 18 18 30 26 26 18 -5 -8 2 -3 15 11 13 14 38 34 54 44 29 18
30 18 15 0 -8 -10 -10 -16 -5 -13 6 2 25 11 43 18 35 16 42 34 16 44 -22 8
-1229 7 -1238 -1z m424 -788 c0 -5 -5 -3 -10 5 -5 8 -10 20 -10 25 0 6 5 3 10
-5 5 -8 10 -19 10 -25z"/>
<path d="M2380 3312 c-63 -40 -256 -178 -296 -211 -7 -6 -15 -7 -20 -3 -4 4
-4 2 0 -5 4 -7 -4 -18 -21 -27 -15 -7 -42 -27 -59 -42 -17 -16 -45 -40 -62
-54 -18 -14 -32 -29 -32 -34 0 -5 -20 -31 -45 -57 -42 -45 -60 -80 -33 -63 8
5 9 2 5 -9 -4 -10 -10 -23 -13 -31 -7 -18 39 -43 111 -62 28 -8 179 -23 337
-34 354 -25 450 -43 547 -104 41 -26 73 -76 85 -132 6 -25 2 -37 -17 -60 -14
-16 -28 -48 -31 -70 -14 -79 -108 -248 -198 -356 -22 -27 -35 -48 -30 -48 19
0 159 177 208 264 27 47 32 41 8 -7 -92 -179 -400 -510 -811 -870 -139 -121
-249 -225 -246 -230 3 -6 1 -7 -5 -3 -9 6 -35 -14 -128 -99 -18 -16 -53 -46
-78 -65 -25 -19 -45 -41 -46 -48 0 -7 -4 -11 -9 -8 -5 3 -15 -2 -22 -11 -12
-15 -12 -16 6 -10 19 7 19 7 1 -8 -10 -8 -23 -12 -28 -9 -5 3 -18 -2 -29 -12
-10 -9 -22 -14 -25 -11 -4 4 1 9 10 13 9 3 16 11 16 17 0 5 -9 2 -20 -8 -11
-10 -20 -24 -20 -31 0 -35 248 -114 420 -134 164 -19 453 -6 487 21 7 6 16 8
20 6 15 -9 100 12 200 49 54 20 100 39 103 43 3 3 34 21 70 40 277 145 466
440 499 778 5 52 3 339 -4 703 -9 471 -13 557 -14 370 -2 -135 -6 -236 -9
-225 -4 11 -13 20 -21 20 -9 0 -22 24 -33 58 -11 31 -23 57 -28 57 -5 0 -16
35 -26 78 -10 42 -21 79 -24 82 -3 3 -15 50 -25 105 -20 107 -26 340 -11 427
l8 46 -45 21 c-25 12 -49 25 -52 31 -4 6 -91 10 -228 10 l-222 0 -75 -48z
m525 -939 c-4 -27 -11 -55 -16 -63 -8 -12 -9 -11 -5 5 2 11 8 39 11 63 4 23 9
42 12 42 3 0 2 -21 -2 -47z m-1335 -1595 c0 -9 -24 -11 -32 -2 -3 3 -3 15 0
26 5 20 6 20 19 3 7 -11 13 -22 13 -27z m130 12 c-20 -13 -33 -13 -25 0 3 6
14 10 23 10 15 0 15 -2 2 -10z m60 -30 c0 -5 -7 -10 -15 -10 -8 0 -15 5 -15
10 0 6 7 10 15 10 8 0 15 -4 15 -10z m160 -10 c0 -5 18 -10 40 -10 22 0 40 -4
40 -9 0 -6 19 -12 43 -14 25 -2 12 -4 -33 -5 -41 -1 -95 3 -120 9 -25 6 -58
13 -75 17 l-30 6 35 7 c55 10 100 10 100 -1z m205 0 c-3 -5 -15 -10 -26 -10
-10 0 -19 5 -19 10 0 6 12 10 26 10 14 0 23 -4 19 -10z m204 1 c8 -5 -5 -7
-35 -4 -27 3 -51 7 -53 9 -9 8 75 3 88 -5z"/>
<path d="M3164 3185 c0 -77 2 -107 3 -67 2 40 2 103 0 140 -2 37 -3 4 -3 -73z"/>
<path d="M824 2895 c0 -82 2 -115 3 -72 2 43 2 110 0 150 -1 40 -3 5 -3 -78z"/>
<path d="M2575 1880 c-10 -11 -16 -20 -13 -20 3 0 15 9 28 20 13 11 19 20 13
20 -5 0 -18 -9 -28 -20z"/>
<path d="M1449 833 c-13 -16 -12 -17 4 -4 9 7 17 15 17 17 0 8 -8 3 -21 -13z"/>
</g>
</svg>
